<svg width="87" height="12" viewBox="0 0 87 12" fill="none" xmlns="http://www.w3.org/2000/svg">
<path d="M8.74219 0.804688L5.5625 11H3.71875L0.539062 0.804688H2.23438L4.64844 8.875L7.04688 0.804688H8.74219ZM17.2031 7.36719C17.2031 7.9349 17.112 8.45052 16.9297 8.91406C16.7526 9.3776 16.4948 9.77865 16.1562 10.1172C15.8229 10.4505 15.4219 10.7109 14.9531 10.8984C14.4844 11.0859 13.9609 11.1797 13.3828 11.1797C12.8151 11.1797 12.2969 11.0859 11.8281 10.8984C11.3594 10.7109 10.9557 10.4505 10.6172 10.1172C10.2839 9.77865 10.026 9.3776 9.84375 8.91406C9.66667 8.45052 9.57812 7.9349 9.57812 7.36719C9.57812 6.8151 9.66667 6.30469 9.84375 5.83594C10.026 5.36198 10.2839 4.95573 10.6172 4.61719C10.9557 4.27344 11.3594 4.01042 11.8281 3.82812C12.2969 3.64062 12.8151 3.54688 13.3828 3.54688C13.9609 3.54688 14.4844 3.64062 14.9531 3.82812C15.4219 4.01042 15.8229 4.27344 16.1562 4.61719C16.4948 4.95573 16.7526 5.36198 16.9297 5.83594C17.112 6.30469 17.2031 6.8151 17.2031 7.36719ZM15.5938 7.36719C15.5938 7.03906 15.5417 6.72917 15.4375 6.4375C15.3385 6.14062 15.1927 5.88802 15 5.67969C14.8073 5.47135 14.5729 5.30729 14.2969 5.1875C14.026 5.0625 13.7214 5 13.3828 5C13.0391 5 12.7318 5.0625 12.4609 5.1875C12.1901 5.30729 11.9609 5.47135 11.7734 5.67969C11.5859 5.88802 11.4401 6.14062 11.3359 6.4375C11.237 6.72917 11.1875 7.03906 11.1875 7.36719C11.1875 7.71094 11.237 8.02344 11.3359 8.30469C11.4401 8.58594 11.5859 8.83333 11.7734 9.04688C11.9609 9.26042 12.1901 9.42708 12.4609 9.54688C12.7318 9.66146 13.0391 9.71875 13.3828 9.71875C13.7214 9.71875 14.026 9.66146 14.2969 9.54688C14.5729 9.42708 14.8073 9.26042 15 9.04688C15.1927 8.83333 15.3385 8.58594 15.4375 8.30469C15.5417 8.02344 15.5938 7.71094 15.5938 7.36719ZM23.0938 2.77344H21.125V0.804688H23.0938V2.77344ZM24.5781 11H19.6875V9.54688H21.2969V5.17969H19.6875V3.71875H22.9141V9.54688H24.5781V11ZM34.2109 9.96094C33.7422 10.4297 33.2474 10.75 32.7266 10.9219C32.2109 11.0938 31.651 11.1797 31.0469 11.1797C30.4375 11.1797 29.8828 11.0885 29.3828 10.9062C28.888 10.724 28.4661 10.4688 28.1172 10.1406C27.7734 9.80729 27.5078 9.40625 27.3203 8.9375C27.138 8.46875 27.0469 7.94531 27.0469 7.36719C27.0469 6.8151 27.138 6.30469 27.3203 5.83594C27.5078 5.36198 27.7578 4.95833 28.0703 4.625C28.388 4.28646 28.7604 4.02344 29.1875 3.83594C29.6146 3.64323 30.0677 3.54688 30.5469 3.54688C31.0469 3.54688 31.4818 3.65104 31.8516 3.85938C32.2214 4.06771 32.4896 4.3724 32.6562 4.77344V3.71875H34.1016V7.10938H32.6562C32.6562 6.46875 32.4792 5.95833 32.125 5.57812C31.776 5.19271 31.3203 5 30.7578 5C30.5339 5 30.2969 5.04688 30.0469 5.14062C29.8021 5.22917 29.5755 5.36979 29.3672 5.5625C29.1641 5.75521 28.9948 6 28.8594 6.29688C28.724 6.59375 28.6562 6.95052 28.6562 7.36719C28.6562 7.77344 28.7214 8.125 28.8516 8.42188C28.9818 8.71354 29.151 8.95573 29.3594 9.14844C29.5729 9.33594 29.8229 9.47917 30.1094 9.57812C30.401 9.67188 30.7005 9.71875 31.0078 9.71875C31.5339 9.71875 31.9896 9.63802 32.375 9.47656C32.7656 9.3099 33.1016 9.09115 33.3828 8.82031L34.2109 9.96094ZM37.4219 7.97656C37.5 8.47656 37.737 8.89323 38.1328 9.22656C38.5339 9.55469 39.0703 9.71875 39.7422 9.71875C40.2682 9.71875 40.724 9.63802 41.1094 9.47656C41.5 9.3099 41.8359 9.09115 42.1172 8.82031L42.9453 9.96094C42.4766 10.4297 41.9792 10.75 41.4531 10.9219C40.9323 11.0938 40.362 11.1797 39.7422 11.1797C39.1797 11.1797 38.6562 11.0859 38.1719 10.8984C37.6875 10.7109 37.2682 10.4505 36.9141 10.1172C36.5599 9.77865 36.2812 9.3776 36.0781 8.91406C35.8802 8.45052 35.7812 7.9349 35.7812 7.36719C35.7812 6.8151 35.8724 6.30729 36.0547 5.84375C36.2422 5.375 36.5026 4.97135 36.8359 4.63281C37.1745 4.28906 37.5781 4.02344 38.0469 3.83594C38.5156 3.64323 39.0339 3.54688 39.6016 3.54688C40.1901 3.54688 40.724 3.64844 41.2031 3.85156C41.6823 4.04948 42.0911 4.33854 42.4297 4.71875C42.7734 5.09896 43.0417 5.5651 43.2344 6.11719C43.4271 6.66406 43.5234 7.28385 43.5234 7.97656H37.4219ZM41.6953 6.55469C41.612 6.08594 41.3698 5.71094 40.9688 5.42969C40.5677 5.14323 40.112 5 39.6016 5C39.0911 5 38.6328 5.14323 38.2266 5.42969C37.8203 5.71094 37.5755 6.08594 37.4922 6.55469H41.6953ZM51.5703 11H49.6953L46.6719 3.60938V11H45.0547V0.804688H47.0859L49.9531 7.82812V0.804688H51.5703V11ZM60.875 7.36719C60.875 7.9349 60.7839 8.45052 60.6016 8.91406C60.4245 9.3776 60.1667 9.77865 59.8281 10.1172C59.4948 10.4505 59.0938 10.7109 58.625 10.8984C58.1562 11.0859 57.6328 11.1797 57.0547 11.1797C56.487 11.1797 55.9688 11.0859 55.5 10.8984C55.0312 10.7109 54.6276 10.4505 54.2891 10.1172C53.9557 9.77865 53.6979 9.3776 53.5156 8.91406C53.3385 8.45052 53.25 7.9349 53.25 7.36719C53.25 6.8151 53.3385 6.30469 53.5156 5.83594C53.6979 5.36198 53.9557 4.95573 54.2891 4.61719C54.6276 4.27344 55.0312 4.01042 55.5 3.82812C55.9688 3.64062 56.487 3.54688 57.0547 3.54688C57.6328 3.54688 58.1562 3.64062 58.625 3.82812C59.0938 4.01042 59.4948 4.27344 59.8281 4.61719C60.1667 4.95573 60.4245 5.36198 60.6016 5.83594C60.7839 6.30469 60.875 6.8151 60.875 7.36719ZM59.2656 7.36719C59.2656 7.03906 59.2135 6.72917 59.1094 6.4375C59.0104 6.14062 58.8646 5.88802 58.6719 5.67969C58.4792 5.47135 58.2448 5.30729 57.9688 5.1875C57.6979 5.0625 57.3932 5 57.0547 5C56.7109 5 56.4036 5.0625 56.1328 5.1875C55.862 5.30729 55.6328 5.47135 55.4453 5.67969C55.2578 5.88802 55.112 6.14062 55.0078 6.4375C54.9089 6.72917 54.8594 7.03906 54.8594 7.36719C54.8594 7.71094 54.9089 8.02344 55.0078 8.30469C55.112 8.58594 55.2578 8.83333 55.4453 9.04688C55.6328 9.26042 55.862 9.42708 56.1328 9.54688C56.4036 9.66146 56.7109 9.71875 57.0547 9.71875C57.3932 9.71875 57.6979 9.66146 57.9688 9.54688C58.2448 9.42708 58.4792 9.26042 58.6719 9.04688C58.8646 8.83333 59.0104 8.58594 59.1094 8.30469C59.2135 8.02344 59.2656 7.71094 59.2656 7.36719ZM69.5 8.67969C69.4167 9.44531 69.1146 10.0547 68.5938 10.5078C68.0781 10.9557 67.4323 11.1797 66.6562 11.1797C66.2292 11.1797 65.8385 11.1094 65.4844 10.9688C65.1302 10.8281 64.8281 10.6328 64.5781 10.3828C64.3281 10.1328 64.1328 9.83333 63.9922 9.48438C63.8568 9.13021 63.7891 8.74479 63.7891 8.32812V5.17969H62.1406V3.71875H63.7891V0.804688H65.4062V3.71875H68.4609V5.17969H65.4062V8.32812C65.4062 8.79688 65.5208 9.14583 65.75 9.375C65.9792 9.60417 66.2812 9.71875 66.6562 9.71875C67.1146 9.71875 67.4557 9.58594 67.6797 9.32031C67.9036 9.05469 68.0365 8.73438 68.0781 8.35938L69.5 8.67969ZM72.3594 7.97656C72.4375 8.47656 72.6745 8.89323 73.0703 9.22656C73.4714 9.55469 74.0078 9.71875 74.6797 9.71875C75.2057 9.71875 75.6615 9.63802 76.0469 9.47656C76.4375 9.3099 76.7734 9.09115 77.0547 8.82031L77.8828 9.96094C77.4141 10.4297 76.9167 10.75 76.3906 10.9219C75.8698 11.0938 75.2995 11.1797 74.6797 11.1797C74.1172 11.1797 73.5938 11.0859 73.1094 10.8984C72.625 10.7109 72.2057 10.4505 71.8516 10.1172C71.4974 9.77865 71.2188 9.3776 71.0156 8.91406C70.8177 8.45052 70.7188 7.9349 70.7188 7.36719C70.7188 6.8151 70.8099 6.30729 70.9922 5.84375C71.1797 5.375 71.4401 4.97135 71.7734 4.63281C72.112 4.28906 72.5156 4.02344 72.9844 3.83594C73.4531 3.64323 73.9714 3.54688 74.5391 3.54688C75.1276 3.54688 75.6615 3.64844 76.1406 3.85156C76.6198 4.04948 77.0286 4.33854 77.3672 4.71875C77.7109 5.09896 77.9792 5.5651 78.1719 6.11719C78.3646 6.66406 78.4609 7.28385 78.4609 7.97656H72.3594ZM76.6328 6.55469C76.5495 6.08594 76.3073 5.71094 75.9062 5.42969C75.5052 5.14323 75.0495 5 74.5391 5C74.0286 5 73.5703 5.14323 73.1641 5.42969C72.7578 5.71094 72.513 6.08594 72.4297 6.55469H76.6328ZM86.6953 8.82031C86.6953 9.29427 86.5885 9.67969 86.375 9.97656C86.1615 10.2734 85.8854 10.513 85.5469 10.6953C85.2135 10.8776 84.8385 11.0026 84.4219 11.0703C84.0104 11.1432 83.6068 11.1797 83.2109 11.1797C82.5495 11.1797 81.8906 11.0833 81.2344 10.8906C80.5781 10.6979 80.0104 10.4453 79.5312 10.1328L80.2031 8.80469C80.776 9.13802 81.2995 9.375 81.7734 9.51562C82.2526 9.65104 82.7318 9.71875 83.2109 9.71875C83.862 9.71875 84.3359 9.65104 84.6328 9.51562C84.9297 9.375 85.0781 9.18229 85.0781 8.9375C85.0781 8.81771 85.0365 8.71875 84.9531 8.64062C84.8698 8.5625 84.7318 8.49219 84.5391 8.42969C84.3464 8.36198 84.0911 8.29688 83.7734 8.23438C83.4609 8.16667 83.0703 8.09635 82.6016 8.02344C82.2266 7.96094 81.8698 7.88542 81.5312 7.79688C81.1979 7.70312 80.9036 7.57292 80.6484 7.40625C80.3932 7.23958 80.1875 7.02865 80.0312 6.77344C79.8802 6.51823 79.8047 6.19792 79.8047 5.8125C79.8047 5.42188 79.9036 5.08333 80.1016 4.79688C80.3047 4.50521 80.5677 4.26562 80.8906 4.07812C81.2188 3.89062 81.5859 3.75521 81.9922 3.67188C82.3984 3.58854 82.8047 3.54688 83.2109 3.54688C83.7839 3.54688 84.3385 3.6224 84.875 3.77344C85.4167 3.91927 85.8906 4.13021 86.2969 4.40625L85.6562 5.65625C85.25 5.40104 84.8542 5.22917 84.4688 5.14062C84.0885 5.04688 83.6693 5 83.2109 5C83.0182 5 82.8177 5.01042 82.6094 5.03125C82.401 5.05208 82.2083 5.09375 82.0312 5.15625C81.8542 5.21354 81.7057 5.29427 81.5859 5.39844C81.4714 5.4974 81.4141 5.61979 81.4141 5.76562C81.4141 5.95833 81.5833 6.11719 81.9219 6.24219C82.2656 6.36198 82.849 6.48177 83.6719 6.60156C84.1198 6.66406 84.5286 6.74479 84.8984 6.84375C85.2682 6.9375 85.5859 7.06771 85.8516 7.23438C86.1172 7.39583 86.3229 7.60677 86.4688 7.86719C86.6198 8.1224 86.6953 8.4401 86.6953 8.82031Z" fill="#758DAE"/>
</svg>
